<svg width="1088" height="55" viewBox="0 0 1088 55" fill="none" xmlns="http://www.w3.org/2000/svg">
<line y1="-0.5" x2="68.5488" y2="-0.5" transform="matrix(0.635025 0.772492 -0.791214 0.611539 43 1)" stroke="#EEDF7B"/>
<line y1="-0.5" x2="68.5465" y2="-0.5" transform="matrix(-0.634166 0.773197 -0.791884 -0.610672 130 1)" stroke="#EEDF7B"/>
<line y1="-0.5" x2="68.5488" y2="-0.5" transform="matrix(0.635025 0.772492 -0.791214 0.611539 130 1)" stroke="#EEDF7B"/>
<line y1="-0.5" x2="68.5465" y2="-0.5" transform="matrix(-0.634166 0.773197 -0.791884 -0.610672 217 1)" stroke="#EEDF7B"/>
<line y1="-0.5" x2="68.5488" y2="-0.5" transform="matrix(0.635025 0.772492 -0.791214 0.611539 217 1)" stroke="#EEDF7B"/>
<line y1="-0.5" x2="68.5465" y2="-0.5" transform="matrix(-0.634166 0.773197 -0.791884 -0.610672 304 1)" stroke="#EEDF7B"/>
<line y1="-0.5" x2="68.5488" y2="-0.5" transform="matrix(0.635025 0.772492 -0.791214 0.611539 304 1)" stroke="#EEDF7B"/>
<line y1="-0.5" x2="68.5465" y2="-0.5" transform="matrix(-0.634166 0.773197 -0.791884 -0.610672 391 1)" stroke="#EEDF7B"/>
<line y1="-0.5" x2="68.5488" y2="-0.5" transform="matrix(0.635025 0.772492 -0.791214 0.611539 391 1)" stroke="#EEDF7B"/>
<line y1="-0.5" x2="68.5465" y2="-0.5" transform="matrix(-0.634166 0.773197 -0.791884 -0.610672 478 1)" stroke="#EEDF7B"/>
<line y1="-0.5" x2="68.5488" y2="-0.5" transform="matrix(0.635025 0.772492 -0.791214 0.611539 478 1)" stroke="#EEDF7B"/>
<line y1="-0.5" x2="68.5465" y2="-0.5" transform="matrix(-0.634166 0.773197 -0.791884 -0.610672 565 1)" stroke="#EEDF7B"/>
<line y1="-0.5" x2="68.5488" y2="-0.5" transform="matrix(0.635025 0.772492 -0.791214 0.611539 43 1)" stroke="#EEDF7B"/>
<line y1="-0.5" x2="68.5465" y2="-0.5" transform="matrix(-0.634166 0.773197 -0.791884 -0.610672 130 1)" stroke="#EEDF7B"/>
<line y1="-0.5" x2="68.5465" y2="-0.5" transform="matrix(-0.634166 0.773197 -0.791884 -0.610672 43.4698 0)" stroke="#EEDF7B"/>
<line y1="-0.5" x2="68.5465" y2="-0.5" transform="matrix(-0.634166 0.773197 -0.791884 -0.610672 43.4698 0)" stroke="#EEDF7B"/>
<line y1="-0.5" x2="68.5488" y2="-0.5" transform="matrix(0.635025 0.772492 -0.791214 0.611539 130 1)" stroke="#EEDF7B"/>
<line y1="-0.5" x2="68.5465" y2="-0.5" transform="matrix(-0.634166 0.773197 -0.791884 -0.610672 217 1)" stroke="#EEDF7B"/>
<line y1="-0.5" x2="68.5488" y2="-0.5" transform="matrix(0.635025 0.772492 -0.791214 0.611539 217 1)" stroke="#EEDF7B"/>
<line y1="-0.5" x2="68.5465" y2="-0.5" transform="matrix(-0.634166 0.773197 -0.791884 -0.610672 304 1)" stroke="#EEDF7B"/>
<line y1="-0.5" x2="68.5488" y2="-0.5" transform="matrix(0.635025 0.772492 -0.791214 0.611539 304 1)" stroke="#EEDF7B"/>
<line y1="-0.5" x2="68.5465" y2="-0.5" transform="matrix(-0.634166 0.773197 -0.791884 -0.610672 391 1)" stroke="#EEDF7B"/>
<line y1="-0.5" x2="68.5488" y2="-0.5" transform="matrix(0.635025 0.772492 -0.791214 0.611539 391 1)" stroke="#EEDF7B"/>
<line y1="-0.5" x2="68.5465" y2="-0.5" transform="matrix(-0.634166 0.773197 -0.791884 -0.610672 478 1)" stroke="#EEDF7B"/>
<line y1="-0.5" x2="68.5488" y2="-0.5" transform="matrix(0.635025 0.772492 -0.791214 0.611539 478 1)" stroke="#EEDF7B"/>
<line y1="-0.5" x2="68.5465" y2="-0.5" transform="matrix(-0.634166 0.773197 -0.791884 -0.610672 565 1)" stroke="#EEDF7B"/>
<line y1="-0.5" x2="68.5488" y2="-0.5" transform="matrix(0.635025 0.772492 -0.791214 0.611539 565 1)" stroke="#EEDF7B"/>
<line y1="-0.5" x2="68.5465" y2="-0.5" transform="matrix(-0.634166 0.773197 -0.791884 -0.610672 652 1)" stroke="#EEDF7B"/>
<line y1="-0.5" x2="68.5488" y2="-0.5" transform="matrix(0.635025 0.772492 -0.791214 0.611539 652 1)" stroke="#EEDF7B"/>
<line y1="-0.5" x2="68.5465" y2="-0.5" transform="matrix(-0.634166 0.773197 -0.791884 -0.610672 739 1)" stroke="#EEDF7B"/>
<line y1="-0.5" x2="68.5488" y2="-0.5" transform="matrix(0.635025 0.772492 -0.791214 0.611539 739 1)" stroke="#EEDF7B"/>
<line y1="-0.5" x2="68.5465" y2="-0.5" transform="matrix(-0.634166 0.773197 -0.791884 -0.610672 826 1)" stroke="#EEDF7B"/>
<line y1="-0.5" x2="68.5488" y2="-0.5" transform="matrix(0.635025 0.772492 -0.791214 0.611539 826 1)" stroke="#EEDF7B"/>
<line y1="-0.5" x2="68.5465" y2="-0.5" transform="matrix(-0.634166 0.773197 -0.791884 -0.610672 913 1)" stroke="#EEDF7B"/>
<line y1="-0.5" x2="68.5488" y2="-0.5" transform="matrix(0.635025 0.772492 -0.791214 0.611539 913 1)" stroke="#EEDF7B"/>
<line y1="-0.5" x2="68.5465" y2="-0.5" transform="matrix(-0.634166 0.773197 -0.791884 -0.610672 1000 1)" stroke="#EEDF7B"/>
<line y1="-0.5" x2="68.5488" y2="-0.5" transform="matrix(0.635025 0.772492 -0.791214 0.611539 1000 1)" stroke="#EEDF7B"/>
<line y1="-0.5" x2="68.5465" y2="-0.5" transform="matrix(-0.634166 0.773197 -0.791884 -0.610672 1087 1)" stroke="#EEDF7B"/>
<line y1="-0.5" x2="68.5488" y2="-0.5" transform="matrix(0.635025 0.772492 -0.791214 0.611539 565 1)" stroke="#EEDF7B"/>
<line y1="-0.5" x2="68.5465" y2="-0.5" transform="matrix(-0.634166 0.773197 -0.791884 -0.610672 652 1)" stroke="#EEDF7B"/>
<line y1="-0.5" x2="68.5488" y2="-0.5" transform="matrix(0.635025 0.772492 -0.791214 0.611539 652 1)" stroke="#EEDF7B"/>
<line y1="-0.5" x2="68.5465" y2="-0.5" transform="matrix(-0.634166 0.773197 -0.791884 -0.610672 739 1)" stroke="#EEDF7B"/>
<line y1="-0.5" x2="68.5488" y2="-0.5" transform="matrix(0.635025 0.772492 -0.791214 0.611539 739 1)" stroke="#EEDF7B"/>
<line y1="-0.5" x2="68.5465" y2="-0.5" transform="matrix(-0.634166 0.773197 -0.791884 -0.610672 826 1)" stroke="#EEDF7B"/>
<line y1="-0.5" x2="68.5488" y2="-0.5" transform="matrix(0.635025 0.772492 -0.791214 0.611539 826 1)" stroke="#EEDF7B"/>
<line y1="-0.5" x2="68.5465" y2="-0.5" transform="matrix(-0.634166 0.773197 -0.791884 -0.610672 913 1)" stroke="#EEDF7B"/>
<line y1="-0.5" x2="68.5488" y2="-0.5" transform="matrix(0.635025 0.772492 -0.791214 0.611539 913 1)" stroke="#EEDF7B"/>
<line y1="-0.5" x2="68.5465" y2="-0.5" transform="matrix(-0.634166 0.773197 -0.791884 -0.610672 1000 1)" stroke="#EEDF7B"/>
<line y1="-0.5" x2="68.5488" y2="-0.5" transform="matrix(0.635025 0.772492 -0.791214 0.611539 1000 1)" stroke="#EEDF7B"/>
<line y1="-0.5" x2="68.5465" y2="-0.5" transform="matrix(-0.634166 0.773197 -0.791884 -0.610672 1087 1)" stroke="#EEDF7B"/>
</svg>
